<svg width="1194" height="1145" viewBox="0 0 1194 1145" fill="none" xmlns="http://www.w3.org/2000/svg">
<path d="M0 140.963V28C0 -2.37566 24.6244 -27 55 -27H1174.5C1204.88 -27 1229.5 -2.37564 1229.5 28V1031.01C1229.5 1077.05 1176.31 1102.71 1140.27 1074.06L20.7722 184.015C7.64795 173.58 0 157.729 0 140.963Z" fill="#233C7B" fill-opacity="0.08"/>
<path d="M89 126.963V14C89 -16.3757 113.624 -41 144 -41H1263.5C1293.88 -41 1318.5 -16.3756 1318.5 14V1017.01C1318.5 1063.05 1265.31 1088.71 1229.27 1060.06L109.772 170.015C96.648 159.58 89 143.729 89 126.963Z" fill="#233C7B" fill-opacity="0.08"/>
</svg>
