<svg id="eTZszN6wR5n1" xmlns="http://www.w3.org/2000/svg" xmlns:xlink="http://www.w3.org/1999/xlink" viewBox="0 0 1194 1145" shape-rendering="geometricPrecision" text-rendering="geometricPrecision"><path d="M0,140.963L0,28c0-30.37566,24.6244-55,55-55h1119.5c30.38,0,55,24.62436,55,55v1003.01c0,46.04-53.19,71.7-89.23,43.05L20.7722,184.015C7.64795,173.58,0,157.729,0,140.963Z" transform="translate(0 10.366683)" fill="#17e32e" fill-opacity="0.08"/><path d="M89,126.963L89,14c0-30.3757,24.624-55,55-55h1119.5c30.38,0,55,24.6244,55,55v1003.01c0,46.04-53.19,71.7-89.23,43.05L109.772,170.015C96.648,159.58,89,143.729,89,126.963Z" transform="translate(-16.300023-12.958353)" fill="#03e11f" fill-opacity="0.08"/></svg>